<svg xmlns="http://www.w3.org/2000/svg" width="476" height="674" viewBox="0 0 476 674" xml:space="preserve"><path fill="#006" d="M238.059 4.004s113.453 112.421 236.186 159.864v373.357s-31.974 17.533-89.73 71.165-108.293 61.885-144.393 62.915-86.637-6.19-144.393-60.853C37.971 555.79 26.625 548.57 2.904 537.226V164.9S120.482 119.52 238.059 4.004"/><path fill="#fff" d="M238.316 421.711s-90.503-93.598-215.815-148.519v-28.621s73.486 13.15 216.59 132.274c0 0 110.616-102.88 211.949-130.728v29.395c0 .001-87.41 28.622-212.724 146.199m213.497 97.465s-61.883 47.96-80.447 66.524-58.015 56.468-133.049 56.468c-75.032 0-111.388-37.129-123.765-47.186-12.376-10.056-40.997-43.318-92.051-76.58v-38.676s65.75 42.544 102.88 80.446h226.646s73.485-62.656 99.013-81.221z"/><path fill="#fff" d="M451.813 453.426s-75.806 54.921-94.371 73.485c-18.564 18.565-225.098 12.377-237.475 2.32-12.376-10.056-46.412-43.317-97.466-76.58v-38.676s68.071 42.544 105.201 80.447l224.325-3.095s53.373-46.412 99.013-74.258z"/><path fill="#fff" d="M451.04 389.223s-82.769 54.147-105.201 78.9c-17.632 19.454-204.213 6.961-216.59-3.095S71.234 417.07 22.501 388.449v-35.583s75.806 43.318 112.936 81.221l202.667-.772s67.297-52.602 112.937-80.448v36.356z"/><path fill="#fff" d="M451.04 332.498s-66.524 30.94-117.578 79.416c-19.039 18.079-185.648-.258-198.025-10.314-12.376-10.056-73.228-54.662-112.936-71.68v-33.777s72.197 29.651 109.327 67.554l195.446 7.994s73.228-52.601 123.767-75.548zM237.544 41.131s88.184 88.957 213.496 143.878v28.621S380.647 202.8 237.544 83.676c0 0-113.709 103.653-215.043 131.501v-29.395s89.73-27.073 215.043-144.651"/><path fill="#fff" stroke="#006" stroke-width="4" d="M134.921 338.169h207.308l24.753 32.488s-14.957 30.941-14.44 57.242 7.222 42.803 14.44 61.367 7.735 81.479-34.035 108.81c-41.771 27.332-60.851 9.8-95.403 36.101 0 0-8.896-9.606-43.317-14.957-38.123-5.924-75.292-27.847-85.605-62.914s-3.609-72.712 3.61-91.277c7.22-18.564 15.987-63.944-5.672-96.433z"/><path fill="#c00" d="M136.689 564.366c-4.677-5.795-8.19-12.126-10.019-18.89-7.246-26.808-3.868-63.429 1.805-76.58 2.543-5.896 6.467-13.21 8.251-26.042v-.001zm163.316 29.26c5.604-2.029 11.823-4.845 18.973-8.963V442.727h-19.164zm-32.487 7.932c5.74-1.504 9.835-2.231 15.715-3.396V442.727h-15.715zm-15.857 4.64c-3.481.967-7.543 3.674-12.57 8.381 0 0-5.545-7.282-16.631-9.638l.099-162.184 29.554.097zm-63.091-8.948a125 125 0 0 0 12.361 2.889q2.896.521 5.518 1.076l-.194-158.425h-18.023zm-36.115-17.738c5.854 4.313 12.953 8.35 19.596 11.345V442.854h-19.854zM340.811 442.79c2.404 19.015 7.856 35.312 11.99 48.538 4.47 14.307 6.774 55.335-17.855 81.135v-129.48z"/><path fill="none" stroke="#006" stroke-width=".5" d="M136.211 442.598c0 17.726-15.471 31.458-13.15 71.424 1.675 28.841 4.384 46.412 26.3 63.43 19.023 14.771 39.293 20.295 62.399 24.494 19.854 3.609 27.59 12.636 27.59 12.636s5.93-7.735 20.627-11.604c11.686-3.076 54.664-8.767 72.712-28.105 18.426-19.743 22.69-37.388 22.69-62.656s-11.345-39.967-14.696-69.104"/><path fill="#006" stroke="#c00" stroke-width=".25" d="M340.142 439.019c-.568-4.487-1.443-7.111-1.521-11.378-.516-28.105 14.438-52.342 14.438-52.342l-15.905-21.482-193.465-.177-17.018 20.111c10.572 17.533 11.087 44.092 10.314 65.493z"/><path fill="#fff" stroke="#c00" stroke-width=".25" d="m195.15 381.071-7.542-4.834-7.734 4.975 2.03-8.553-6.146-5.869 8.466.067 3.095-9.281 3.287 9.088 8.358.029-6.231 5.87zm29.878 0-7.543-4.834-7.734 4.975 2.03-8.553-6.145-5.869 8.466.067 3.094-9.281 3.288 9.088 8.357.029-6.231 5.87zm40.515 0L258 376.237l-7.735 4.975 2.031-8.553-6.147-5.869 8.467.067 3.094-9.281 3.287 9.088 8.358.029-6.23 5.87zm31.134 0-7.542-4.834-7.736 4.975 2.032-8.553-6.148-5.869 8.468.067 3.094-9.281 3.287 9.088 8.358.029-6.23 5.87zm28.814 0-7.542-4.834-7.735 4.975 2.03-8.553-6.146-5.869 8.467.067 3.094-9.281 3.287 9.088 8.359.029-6.231 5.87zm-161.862 0-7.542-4.834-7.735 4.975 2.03-8.553-6.146-5.869 8.467.067 3.094-9.281 3.287 9.088 8.358.029-6.231 5.87zm31.521 49.764L187.608 426l-7.734 4.975 2.03-8.552-6.146-5.87 8.466.068 3.095-9.283 3.287 9.089 8.358.029-6.231 5.87zm29.878 0L217.485 426l-7.734 4.975 2.03-8.552-6.145-5.87 8.466.068 3.094-9.283 3.288 9.089 8.357.029-6.231 5.87zm40.515 0L258 426l-7.735 4.975 2.031-8.552-6.147-5.87 8.467.068 3.094-9.283 3.287 9.089 8.358.029-6.23 5.87zm31.134 0L289.135 426l-7.736 4.975 2.032-8.552-6.148-5.87 8.468.068 3.094-9.283 3.287 9.089 8.358.029-6.23 5.87zm28.814 0L317.949 426l-7.735 4.975 2.03-8.552-6.146-5.87 8.467.068 3.094-9.283 3.287 9.089 8.359.029-6.231 5.87zm-44.283-25.783-7.542-4.836-7.735 4.975 2.03-8.552-6.147-5.869 8.467.068 3.095-9.283 3.287 9.089 8.358.029-6.23 5.869zm30.876 0-7.542-4.836-7.735 4.975 2.03-8.552-6.146-5.869 8.466.068 3.095-9.283 3.287 9.089 8.358.029-6.23 5.869zm-133.498 0-7.543-4.836-7.735 4.975 2.03-8.552-6.146-5.869 8.467.068 3.094-9.283 3.287 9.089 8.358.029-6.23 5.869zm31.391 0-7.541-4.836-7.737 4.975 2.03-8.552-6.145-5.869 8.467.068 3.094-9.283 3.288 9.089 8.357.029-6.231 5.869zm-46.348 25.783L156.087 426l-7.735 4.975 2.03-8.552-6.146-5.87 8.467.068 3.094-9.283 3.287 9.089 8.358.029-6.231 5.87z"/><path fill="#fff" stroke="#c00" stroke-width=".25" d="M230.194 440.082c-2.095-21.294-2.109-50.146 6.125-79.029 0 0 .451-1.803 1.289-1.74.836.064 1.289 1.678 1.289 1.678s9.226 36.431 5.028 79.092"/><path fill="#fff" stroke="#006" stroke-width=".5" d="M230.389 442.016c1.115 9.974 2.753 18.925 4.03 24.73-5.971.944-10.541 6.102-10.541 12.336 0 2.343.657 4.528 1.778 6.403-52.665 17.211-90.115 56.593-90.115 56.593s-1.128 1.241-.74 1.982c.391.746 2.161.171 2.161.171 45.479-13.112 78.873-42.684 91.637-55.373a12.44 12.44 0 0 0 7.784 2.729 12.47 12.47 0 0 0 8.892-3.717c38.517 40.338 90.826 57.036 90.826 57.036s1.609.475 2.104-.198c.503-.677-.786-2.02-.786-2.02-31.595-35.163-72.705-52.316-89.731-58.29a12.4 12.4 0 0 0 1.2-5.316c0-5.908-4.104-10.848-9.613-12.155 1.983-8.109 3.745-17.135 4.65-25.008"/></svg>