<svg width="437.978" height="682.466" viewBox="0 0 437.978 682.466" xml:space="preserve" xmlns="http://www.w3.org/2000/svg"><path fill="#006" d="M218.874 6.529s100 110.667 217.036 159.053v392.271s-29.327 16.083-82.304 65.276c-52.978 49.194-99.332 56.764-132.444 57.709-33.111.944-79.467-5.678-132.444-55.817-52.978-50.138-63.385-56.761-85.143-67.167V166.529s118.803-50.261 215.299-160"/><path fill="#fff" d="M219.507 458.898S136.492 373.045 21.55 322.669v-26.251s67.404 12.062 198.666 121.328c0 0 101.462-94.367 194.409-119.91v26.961c0 .001-80.176 26.254-195.118 134.101m195.034 87.63s-58.306 45.637-75.333 62.666c-17.029 17.027-50.877 51.918-119.7 51.918s-99.281-33.694-110.633-42.918-38.505-41.157-85.333-71.666v-35.477s55.624 39.101 94.667 75.81c20.582 19.352 46.019 41.754 101.667 43.333 47 1.334 80.479-23.974 100.666-43.666 20.959-20.445 70.671-58.097 94.085-75.126z"/><path fill="#fff" d="M415.335 487.988s-69.534 50.376-86.562 67.405c-17.029 17.028-206.471 11.352-217.824 2.129s-42.571-39.733-89.399-70.244v-35.476s62.438 39.024 96.495 73.79l205.761-2.837s48.957-42.572 90.819-68.114z"/><path fill="#fff" d="M414.625 429.099s-75.919 49.666-96.494 72.371c-16.173 17.845-187.314 6.386-198.667-2.839-11.352-9.224-53.214-43.989-97.914-70.242v-32.638s69.533 39.732 103.59 74.5l185.894-.71s61.729-48.247 103.591-73.79z"/><path fill="#fff" d="M414.625 377.067s-61.019 28.38-107.847 72.844c-17.465 16.582-170.286-.237-181.638-9.461s-67.168-50.139-103.59-65.748V343.72s66.222 27.198 100.279 61.965l179.272 7.331s67.168-48.247 113.523-69.296zM218.797 44.409s88.69 96.495 195.828 148.29v32.638S313.873 177.089 218.797 85.561c0 0-113.523 107.848-197.247 139.776v-31.219c.001 0 102.171-46.828 197.247-149.709"/><path fill="#fff" d="M218.797 111.813s80.886 81.595 195.828 131.971v26.252s-64.566-9.933-195.828-119.2c0 0-104.299 95.076-197.247 120.619v-26.962c.001.001 82.304-24.832 197.247-132.68"/><path fill="#fff" stroke="#006" stroke-width="4" d="M125.667 348.271H315.82l22.704 29.799s-13.719 28.381-13.245 52.505 6.625 39.261 13.245 56.29c6.621 17.027 7.097 74.735-31.218 99.806-38.314 25.069-55.816 8.987-87.509 33.111 0 0-8.16-8.811-39.733-13.718-34.967-5.435-69.061-25.543-78.521-57.708s-3.31-66.695 3.311-83.725c6.622-17.027 14.664-58.653-5.203-88.452z"/><path fill="#c00" d="M127.289 555.748c-4.291-5.314-7.513-11.122-9.19-17.326-6.646-24.59-3.547-58.18 1.656-70.243 2.333-5.409 5.932-12.116 7.568-23.887v-.001zm149.801 26.839c5.142-1.861 10.843-4.444 17.402-8.221V444.175h-17.578zm-29.798 7.275c5.265-1.379 9.02-2.047 14.413-3.113V444.175h-14.413zm-14.545 4.258c-3.193.886-6.919 3.37-11.53 7.687 0 0-5.086-6.681-15.255-8.841l.091-148.763 27.108.089zm-57.871-8.208a115 115 0 0 0 11.338 2.648q2.657.48 5.061.987l-.178-145.314h-16.532zm-33.126-16.271c5.369 3.957 11.881 7.659 17.975 10.406V444.291h-18.211zm172.769-125.408c2.204 17.44 7.206 32.39 10.997 44.522 4.101 13.121 6.214 50.756-16.378 74.419V444.41z"/><path fill="none" stroke="#006" stroke-width=".5" d="M126.85 444.057c0 16.258-14.19 28.854-12.062 65.513 1.536 26.455 4.021 42.572 24.124 58.182 17.449 13.548 36.041 18.615 57.235 22.468 18.21 3.31 25.307 11.589 25.307 11.589s5.438-7.096 18.92-10.643c10.719-2.822 50.141-8.042 66.695-25.779 16.9-18.11 20.813-34.295 20.813-57.473s-10.405-36.659-13.48-63.384"/><path fill="#006" stroke="#c00" stroke-width=".25" d="M313.905 440.773c-.521-4.115-1.323-6.522-1.396-10.437-.472-25.779 13.244-48.01 13.244-48.01l-14.59-19.705-177.455-.161-15.61 18.447c9.697 16.082 10.17 40.442 9.46 60.072z"/><path fill="#fff" stroke="#c00" stroke-width=".25" d="m180.912 387.622-6.917-4.434-7.095 4.563 1.862-7.845-5.637-5.384 7.766.062 2.838-8.514 3.015 8.337 7.666.027-5.715 5.383zm27.405 0-6.917-4.434-7.095 4.563 1.862-7.845-5.637-5.384 7.765.062 2.839-8.514 3.015 8.337 7.666.027-5.714 5.383zm37.162 0-6.918-4.434-7.095 4.563 1.862-7.845-5.637-5.384 7.766.062 2.837-8.514 3.016 8.337 7.666.027-5.715 5.383zm28.558 0-6.917-4.434-7.096 4.563 1.862-7.845-5.636-5.384 7.765.062 2.838-8.514 3.016 8.337 7.667.027-5.716 5.383zm26.429 0-6.918-4.434-7.094 4.563 1.862-7.845-5.637-5.384 7.766.062 2.838-8.514 3.015 8.337 7.666.027-5.714 5.383zm-148.467 0-6.917-4.434-7.095 4.563 1.862-7.845-5.638-5.384 7.767.062 2.838-8.514 3.015 8.337 7.666.027-5.715 5.383zm28.913 45.645-6.917-4.434-7.095 4.563 1.862-7.844-5.637-5.385 7.766.062 2.838-8.514 3.015 8.338 7.666.025-5.715 5.385zm27.405 0-6.917-4.434-7.095 4.563 1.862-7.844-5.637-5.385 7.765.062 2.839-8.514 3.015 8.338 7.666.025-5.714 5.385zm37.162 0-6.918-4.434-7.095 4.563 1.862-7.844-5.637-5.385 7.766.062 2.837-8.514 3.016 8.338 7.666.025-5.715 5.385zm28.558 0-6.917-4.434-7.096 4.563 1.862-7.844-5.636-5.385 7.765.062 2.838-8.514 3.016 8.338 7.667.025-5.716 5.385zm26.429 0-6.918-4.434-7.094 4.563 1.862-7.844-5.637-5.385 7.766.062 2.838-8.514 3.015 8.338 7.666.025-5.714 5.385zm-40.618-23.65-6.918-4.434-7.096 4.563 1.864-7.845-5.638-5.383 7.766.062 2.839-8.515 3.014 8.337 7.667.027-5.716 5.384zm28.321 0-6.918-4.434-7.095 4.563 1.862-7.845-5.637-5.383 7.766.062 2.839-8.515 3.014 8.337 7.667.027-5.715 5.384zm-122.451 0-6.918-4.434-7.095 4.563 1.862-7.845-5.637-5.383 7.766.062 2.838-8.515 3.016 8.337 7.666.027-5.716 5.384zm28.794 0-6.918-4.434-7.095 4.563 1.862-7.845-5.637-5.383 7.766.062 2.838-8.515 3.015 8.337 7.666.027-5.714 5.384zm-42.513 23.65-6.917-4.434-7.095 4.563 1.862-7.844-5.638-5.385 7.767.062 2.838-8.514 3.015 8.338 7.666.025-5.715 5.385z"/><path fill="#fff" stroke="#c00" stroke-width=".25" d="M213.057 441.75c-1.922-19.533-1.936-45.996 5.617-72.489 0 0 .413-1.655 1.183-1.597.766.058 1.182 1.538 1.182 1.538s8.462 33.416 4.613 72.548"/><path fill="#fff" stroke="#006" stroke-width=".5" d="M213.234 443.523c1.023 9.147 2.525 17.357 3.697 22.684-5.476.866-9.668 5.596-9.668 11.315 0 2.149.602 4.152 1.631 5.872-48.307 15.788-82.658 51.911-82.658 51.911s-1.035 1.138-.678 1.818c.359.684 1.982.155 1.982.155 41.716-12.026 72.345-39.15 84.054-50.789a11.4 11.4 0 0 0 7.139 2.503c3.191 0 6.075-1.307 8.155-3.41 35.33 36.999 83.311 52.316 83.311 52.316s1.477.436 1.931-.182c.462-.62-.721-1.854-.721-1.854-28.98-32.253-66.689-47.986-82.306-53.465a11.4 11.4 0 0 0 1.1-4.877c0-5.421-3.763-9.95-8.817-11.148 1.819-7.439 3.436-15.719 4.267-22.939"/><path style="fill:#fff;stroke-width:1.21515" d="M274.869 282.729c-19.052 11.994-37.456 24.922-55.88 37.844-18.206-13.244-37.046-25.528-55.88-37.844 19.052-11.995 37.456-24.923 55.88-37.844 18.206 13.243 37.046 25.528 55.88 37.844"/></svg>