<svg xmlns="http://www.w3.org/2000/svg" xmlns:xlink="http://www.w3.org/1999/xlink" width="68.63" height="114.77" version="1.0"><defs><linearGradient id="a"><stop style="stop-color:#888a85;stop-opacity:1" offset="0"/><stop style="stop-color:#fff;stop-opacity:1" offset="1"/></linearGradient><linearGradient id="b"><stop style="stop-color:#000;stop-opacity:1" offset="0"/><stop style="stop-color:#fff;stop-opacity:1" offset="1"/></linearGradient><linearGradient xlink:href="#a" id="c" gradientUnits="userSpaceOnUse" gradientTransform="translate(151.434 345.652)" x1="567.247" y1="283.128" x2="542.656" y2="262.344"/><linearGradient xlink:href="#b" id="d" gradientUnits="userSpaceOnUse" gradientTransform="translate(151.434 345.652)" x1="506.469" y1="221.894" x2="543.113" y2="262.606"/><linearGradient xlink:href="#b" id="f" gradientUnits="userSpaceOnUse" gradientTransform="translate(151.434 345.652)" x1="587.836" y1="168.454" x2="499.443" y2="333.696"/><pattern patternUnits="userSpaceOnUse" width="1.154" height="1.154" patternTransform="translate(771.962 605.002)" id="e"><path d="M.1.1v.954M.1.1h.954" style="fill:none;fill-opacity:.75;fill-rule:evenodd;stroke:#5b5b5b;stroke-width:.20047474;stroke-linecap:square;stroke-linejoin:miter;marker-start:none;stroke-miterlimit:4;stroke-opacity:1"/></pattern></defs><path d="M694.09 607.996v55.437l.562.969 31.438-54.5-1.094-1.906z" style="opacity:1;fill:url(#c);fill-opacity:1;stroke:none;stroke-width:.1;stroke-miterlimit:4;stroke-dasharray:none;stroke-opacity:1" transform="translate(-659.971 -552.12)"/><path d="m662.48 608.558-.062.125 32.165 55.407v-55.343l-16.18-.189z" style="opacity:1;fill:#555753;fill-opacity:1;stroke:none;stroke-width:.1;stroke-miterlimit:4;stroke-dasharray:none;stroke-opacity:1" transform="translate(-659.971 -552.12)"/><path d="m694.184 554.62-31.72 53.992.33.116h31.874l-.172-26.685v-26.891z" style="opacity:1;fill:url(#d);fill-opacity:1;stroke:none;stroke-width:.1;stroke-miterlimit:4;stroke-dasharray:none;stroke-opacity:1" transform="translate(-659.971 -552.12)"/><path d="m694.404 554.62-.25.438v54.735h31.717l.219-.375z" style="opacity:1;fill:#fff;fill-opacity:1;stroke:none;stroke-width:.1;stroke-miterlimit:4;stroke-dasharray:none;stroke-opacity:1" transform="translate(-659.971 -552.12)"/><path d="m694.176 554.619 31.923 55.292-31.455 54.48-32.171-55.722z" style="fill:none;fill-opacity:.75;fill-rule:evenodd;stroke:#000;stroke-width:1px;stroke-linecap:butt;stroke-linejoin:miter;stroke-opacity:1" transform="translate(-659.971 -552.12)"/><path d="m694.2 566.686 24.904 43.136-24.539 42.503-25.098-43.472z" style="fill:#898989;fill-opacity:1;fill-rule:evenodd;stroke:#000;stroke-width:.78014666px;stroke-linecap:butt;stroke-linejoin:miter;stroke-opacity:1" transform="translate(-659.971 -552.12)"/><path d="m694.2 566.686 24.904 43.136-24.539 42.503-25.098-43.472z" style="fill:url(#e);fill-opacity:1;fill-rule:evenodd;stroke:url(#f);stroke-width:.78014666px;stroke-linecap:butt;stroke-linejoin:miter;stroke-opacity:1" transform="translate(-659.971 -552.12)"/></svg>