<svg xmlns="http://www.w3.org/2000/svg" version="1.0" width="772.02" height="788.091" viewBox="-0.25 -0.25 772.02 788.091" xml:space="preserve"><path d="m982.699 635.643.01 473.44c140 70 235.827 231.734 388.106 231.368 152.28-.366 243.904-161.308 383.904-231.308l-.02-473.5s-185.378-83.282-385.69-83.282c-200.31 0-386.31 83.282-386.31 83.282" style="fill:#163759;fill-opacity:1;stroke:none;stroke-width:1px;stroke-linecap:butt;stroke-linejoin:miter;stroke-opacity:1" transform="translate(-982.949 -552.61)"/><path style="fill:#fff;fill-opacity:1;stroke:none" d="m1727.209 995.144-.01-58.25c-239.99 100.25-215.894 218.058-355.894 218.058S1251.2 1037.084 1011.2 937.084v58c215 110 220.106 217.868 360.106 217.868s140.904-107.808 355.904-217.808" transform="translate(-982.949 -552.61)"/><g style="fill:#fff;fill-opacity:1"><path d="m1237.396 1427.158-.01 58.25c-260-110-357.894-219.058-357.894-219.058s-98.106 108.868-358.106 218.868v-58c260-110 357.973-232.136 357.973-232.136s98.037 122.076 358.037 232.076" style="fill:#fff;fill-opacity:1" transform="matrix(1 0 0 -1 -493.636 1589.751)"/><path d="M879.227 1077.147s98.159 147.072 358.159 257.072v58c-260-110-358.027-243.804-358.027-243.804s-97.973 133.803-357.973 243.803v-58c260-110 357.84-257.071 357.84-257.071" style="fill:#fff;fill-opacity:1" transform="matrix(1 0 0 -1 -493.636 1589.751)"/><path d="M1237.386 1241.218v58.19c-260-110-358.16-268.928-358.16-268.928s-97.84 158.738-357.84 268.738v-58c161.365-68.27 260.268-162.558 312.085-224.272l87.907-4.447c50.834 61.557 150.716 158.788 316.008 228.72" style="fill:#fff;fill-opacity:1" transform="matrix(1 0 0 -1 -493.636 1589.751)"/></g><g transform="translate(104.031 -1010.994)"><circle cy="1452.33" cx="281.692" style="opacity:1;fill:#163759;fill-opacity:1;fill-rule:nonzero;stroke:none;stroke-width:5;stroke-linecap:square;stroke-linejoin:miter;stroke-miterlimit:4;stroke-dasharray:none;stroke-dashoffset:0;stroke-opacity:1;paint-order:normal" r="160"/><g transform="translate(-345.058 401.711)"/></g><path style="fill:#fff;fill-opacity:1;stroke:none" d="m1726.719 1087.643-.01-58.25c-189.49 89.15-215.894 218.058-355.894 218.058s-170.106-127.868-360.106-217.868v58c135 65 220.106 217.868 360.106 217.868s221.404-153.909 355.904-217.808" transform="translate(-982.949 -552.61)"/><g transform="translate(-66.149 -393.597)"/><g transform="translate(-56.204 -1177.87)scale(1.33333)"/><g transform="translate(-65.126 331.703)scale(1.33333)"/><g transform="translate(-4075.163 843.717)"/><g transform="translate(-4065.218 59.445)scale(1.33333)"/><g transform="translate(-4074.14 1569.017)scale(1.33333)"/><g style="fill:#fff;fill-opacity:1;stroke:#02304a;stroke-width:5.92658329;stroke-miterlimit:4;stroke-dasharray:none;stroke-opacity:1" transform="matrix(.5215 0 0 .49134 -1152.692 697.536)"/><g transform="translate(-24.35 95.95)"/><g transform="translate(123.488 -8.687)"/><g transform="rotate(90 -77.873 44.459)scale(.98989)"/><g transform="rotate(90 273.646 -301.157)scale(.98989)"/><g transform="rotate(90 -167.068 -32.92)scale(.98989)"/><g transform="rotate(90 -77.873 44.459)scale(.98989)"/><g transform="translate(916.8 -345.179)"/><g transform="translate(926.745 -1129.451)scale(1.33333)"/><g transform="translate(917.823 380.121)scale(1.33333)"/><g transform="translate(-3092.215 892.136)"/><g transform="translate(-3082.27 107.863)scale(1.33333)"/><g transform="translate(-3091.192 1617.435)scale(1.33333)"/><g style="fill:#fff;fill-opacity:1;stroke:#02304a;stroke-width:5.92658329;stroke-miterlimit:4;stroke-dasharray:none;stroke-opacity:1" transform="matrix(.5215 0 0 .49134 -169.744 745.954)"/><g transform="translate(958.6 144.369)"/><g transform="translate(1106.437 39.732)"/><g style="fill:#fff;fill-opacity:1"><g style="fill:#fff;fill-opacity:1"><path style="fill:#fff;fill-opacity:1;stroke-width:.21403378" d="M398.522 465.96c-.345-.201-.349-.279-.046-1.01 3.187-7.683 19.674-18.451 37.386-24.417l4.178-1.407.139-1.532c.078-.872.337-1.942.6-2.484.44-.907 1.68-2.213 2.765-2.915l.504-.326-.552-2.458c-3.022-13.44-3.458-29.383-1.069-39.11.918-3.737 2.968-8.124 3.797-8.124.595 0 2.207 2.921 3.156 5.72 2.198 6.48 2.791 17.418 1.586 29.232-.407 3.988-1.232 9.138-1.93 12.042-.292 1.214-.53 2.287-.53 2.384s.417.421.928.72c1.134.663 2.432 2.061 2.859 3.08.174.417.382 1.344.461 2.06l.144 1.303 1.929.602c13.565 4.234 27.488 11.722 34.959 18.801 2.857 2.708 5.706 6.968 4.988 7.46-.582.4-5.482.05-7.774-.555-9.77-2.578-24.561-11.49-34.376-20.71-.978-.919-1.849-1.64-1.934-1.603-.085.038-.732.357-1.437.71-1.757.878-3.719.899-5.524.059l-1.24-.577-1.974 1.83c-1.086 1.006-3.325 2.912-4.975 4.236-13.016 10.436-26.865 17.244-35.012 17.212-.898-.003-1.8-.104-2.006-.224" transform="matrix(2.66158 0 0 2.54515 -803.106 -673.03)"/></g><g style="fill:#fff;fill-opacity:1" transform="matrix(2.66158 0 0 -2.54515 -802.614 1555.7)"/></g><g style="fill:#fff"><g style="opacity:1;fill:#fff"><path style="opacity:1;fill:#fff;fill-opacity:1;fill-rule:nonzero;stroke:none;stroke-width:.17677671;stroke-linecap:square;stroke-linejoin:miter;stroke-miterlimit:4;stroke-dasharray:none;stroke-dashoffset:0;stroke-opacity:1;paint-order:normal" d="M289.858 537.437c-7.157-.142-14.251 1.735-20.736 4.674-8.685 3.961-15.983 10.834-20.386 19.312-5.485 10.285-7.1 22.214-6.455 33.739.504 9.983 3.063 19.948 7.874 28.738 3.165 5.824 7.67 10.907 13.184 14.605 6.98 4.653 15.445 6.57 23.723 7.077 5.96.14 12.012.048 17.779-1.636 10.037-2.699 18.795-9.54 24.003-18.515 2.675-4.553 4.695-9.53 5.861-14.673-4.54-1.262-9.123-2.367-13.685-3.548-1.33 5.688-3.461 11.345-7.096 15.975-2.817 3.458-6.398 6.27-10.498 8.048-6.137 2.945-13.222 3.022-19.837 2.065-8.464-1.63-16.479-6.579-20.849-14.139-4.12-7.06-5.772-15.296-6.233-23.38-.356-7.156-.046-14.417 1.945-21.341 1.474-6.019 4.18-11.875 8.718-16.203 5.772-6.095 14.236-9.087 22.526-9.107 5.37-.228 10.894.46 15.701 3 6.446 3.249 10.67 9.584 13.112 16.198.45.782.417 1.948 1.12 2.525 4.432-1.027 8.924-2.004 13.3-3.177-2.938-10.869-10.202-20.81-20.435-25.813-6.186-3.097-13.124-4.682-20.046-4.429q-1.295-.001-2.59.005m71.033 53.64c-6.754 17.62-13.551 35.224-20.275 52.856h14.611c3.854-10.606 7.682-21.222 11.56-31.82h43.955c4.103 10.58 8.116 21.211 12.293 31.751 5.21.097 10.423-.011 15.634-.02l-42.829-104.65h-15.02zM388 550.179c.914 2.218 1.46 4.633 2.298 6.904 3.974 11.977 8.698 23.687 13.052 35.528.961 2.716 2.164 5.511 2.955 8.19-7.675.302-15.367.124-23.048.168-4.143-.035-8.292.018-12.43-.139 4.312-11.944 8.986-23.759 13.163-35.752 1.6-4.879 2.812-9.875 3.973-14.868.007-.013.018-.035.036-.03m62.024 41.339v52.414h13.787l.09-42.692c11.615-.124 23.236 0 34.848-.34 6.927-.666 14.104-2.15 19.86-6.283 5.116-3.904 8.625-9.731 10.295-15.902 2.133-8.385 1.473-17.67-2.895-25.257-2.608-5.03-7.077-8.96-12.315-11.078-7.979-3.429-16.84-3.194-25.348-3.24-12.774-.063-25.548-.027-38.322-.037zm31.157-40.167c6.672.11 13.363-.125 20.02.415 7.23.663 13.187 6.87 14.298 13.922 1.058 6.174-.05 13.26-4.753 17.74-4.43 4.047-10.691 5.115-16.482 5.402-10.149.201-20.301.098-30.451.124v-37.68z" transform="translate(-.25 -504.443)"/></g></g></svg>