<svg version="1.0" width="772.02" height="1292.284" viewBox="-0.25 -0.25 772.02 1292.284" xml:space="preserve" xmlns="http://www.w3.org/2000/svg"><path d="M1368.559 48.168s-125.86 198.475-385.86 308.475l.01 752.44c140 70 235.827 231.734 388.106 231.368 152.28-.366 243.904-161.308 383.904-231.308l-.02-752.5c-260-110-386.14-308.475-386.14-308.475" style="fill:#163759;fill-opacity:1;stroke:none;stroke-width:1px;stroke-linecap:butt;stroke-linejoin:miter;stroke-opacity:1" transform="translate(-982.949 -48.418)"/><path style="fill:#fff;fill-opacity:1;stroke:none" d="m1727.209 995.144-.01-58.25c-239.99 100.25-215.894 218.058-355.894 218.058S1251.2 1037.084 1011.2 937.084v58c215 110 220.106 217.868 360.106 217.868s140.904-107.808 355.904-217.808" transform="translate(-982.949 -48.418)"/><g style="fill:#fff;fill-opacity:1"><path d="m1237.396 1427.158-.01 58.25c-260-110-357.894-219.058-357.894-219.058s-98.106 108.868-358.106 218.868v-58c260-110 357.973-232.136 357.973-232.136s98.037 122.076 358.037 232.076" style="fill:#fff;fill-opacity:1" transform="matrix(1 0 0 -1 -493.636 2093.943)"/><path d="M879.227 1077.147s98.159 147.072 358.159 257.072v58c-260-110-358.027-243.804-358.027-243.804s-97.973 133.803-357.973 243.803v-58c260-110 357.84-257.071 357.84-257.071" style="fill:#fff;fill-opacity:1" transform="matrix(1 0 0 -1 -493.636 2093.943)"/><path d="M1237.386 1241.218v58.19c-260-110-358.16-268.928-358.16-268.928s-97.84 158.738-357.84 268.738v-58c161.365-68.27 260.268-162.558 312.085-224.272l87.907-4.447c50.834 61.557 150.716 158.788 316.008 228.72" style="fill:#fff;fill-opacity:1" transform="matrix(1 0 0 -1 -493.636 2093.943)"/></g><path style="fill:#fff;fill-opacity:1" d="m1726.709 564.083-.01 58.25c-260-110-357.894-219.058-357.894-219.058S1270.7 512.143 1010.7 622.143v-58c260-110 357.973-232.137 357.973-232.137s98.037 122.077 358.037 232.077" transform="translate(-982.949 -48.418)"/><path style="fill:#fff" d="M1368.54 214.071s98.159 147.072 358.159 257.072v58c-260-110-358.027-243.803-358.027-243.803S1270.7 419.143 1010.7 529.143v-58c260-110 357.84-257.072 357.84-257.072" transform="translate(-982.949 -48.418)"/><path style="fill:#fff" d="M1726.699 378.143v58.19c-260-110-358.16-268.928-358.16-268.928s-97.84 158.738-357.84 268.738v-58c260-110 357.84-287.548 357.84-287.548s98.16 177.548 358.16 287.548" transform="translate(-982.949 -48.418)"/><g transform="translate(104.031 -506.802)"><circle cy="1452.33" cx="281.692" style="opacity:1;fill:#163759;fill-opacity:1;fill-rule:nonzero;stroke:none;stroke-width:5;stroke-linecap:square;stroke-linejoin:miter;stroke-miterlimit:4;stroke-dasharray:none;stroke-dashoffset:0;stroke-opacity:1;paint-order:normal" r="160"/><g transform="translate(-345.058 401.711)"/></g><path style="fill:#fff;fill-opacity:1;stroke:none" d="m1726.719 1087.643-.01-58.25c-189.49 89.15-215.894 218.058-355.894 218.058s-170.106-127.868-360.106-217.868v58c135 65 220.106 217.868 360.106 217.868s221.404-153.909 355.904-217.808" transform="translate(-982.949 -48.418)"/><g transform="translate(-66.149 110.596)"/><g transform="translate(-56.204 -673.677)scale(1.33333)"/><g transform="translate(-65.126 835.895)scale(1.33333)"/><g transform="translate(-4075.163 1347.91)"/><g transform="translate(-4065.218 563.638)scale(1.33333)"/><g transform="translate(-4074.14 2073.21)scale(1.33333)"/><g style="fill:#fff;fill-opacity:1;stroke:#02304a;stroke-width:5.92658329;stroke-miterlimit:4;stroke-dasharray:none;stroke-opacity:1" transform="matrix(.5215 0 0 .49134 -1152.692 1201.729)"/><g transform="translate(-24.35 600.143)"/><g transform="translate(123.488 495.506)"/><g transform="rotate(90 -329.97 296.555)scale(.98989)"/><g transform="rotate(90 21.55 -49.06)scale(.98989)"/><g transform="rotate(90 -419.164 219.176)scale(.98989)"/><g transform="rotate(90 -329.97 296.555)scale(.98989)"/><g transform="translate(916.8 159.014)"/><g transform="translate(926.745 -625.259)scale(1.33333)"/><g transform="translate(917.823 884.314)scale(1.33333)"/><g transform="translate(-3092.215 1396.328)"/><g transform="translate(-3082.27 612.056)scale(1.33333)"/><g transform="translate(-3091.192 2121.628)scale(1.33333)"/><g style="fill:#fff;fill-opacity:1;stroke:#02304a;stroke-width:5.92658329;stroke-miterlimit:4;stroke-dasharray:none;stroke-opacity:1" transform="matrix(.5215 0 0 .49134 -169.744 1250.147)"/><g transform="translate(958.6 648.562)"/><g transform="translate(1106.437 543.924)"/><g style="fill:#fff;fill-opacity:1"><g style="fill:#fff;fill-opacity:1"><path style="fill:#fff;fill-opacity:1;stroke-width:.21403378" d="M398.522 465.96c-.345-.201-.349-.279-.046-1.01 3.187-7.683 19.674-18.451 37.386-24.417l4.178-1.407.139-1.532c.078-.872.337-1.942.6-2.484.44-.907 1.68-2.213 2.765-2.915l.504-.326-.552-2.458c-3.022-13.44-3.458-29.383-1.069-39.11.918-3.737 2.968-8.124 3.797-8.124.595 0 2.207 2.921 3.156 5.72 2.198 6.48 2.791 17.418 1.586 29.232-.407 3.988-1.232 9.138-1.93 12.042-.292 1.214-.53 2.287-.53 2.384s.417.421.928.72c1.134.663 2.432 2.061 2.859 3.08.174.417.382 1.344.461 2.06l.144 1.303 1.929.602c13.565 4.234 27.488 11.722 34.959 18.801 2.857 2.708 5.706 6.968 4.988 7.46-.582.4-5.482.05-7.774-.555-9.77-2.578-24.561-11.49-34.376-20.71-.978-.919-1.849-1.64-1.934-1.603-.085.038-.732.357-1.437.71-1.757.878-3.719.899-5.524.059l-1.24-.577-1.974 1.83c-1.086 1.006-3.325 2.912-4.975 4.236-13.016 10.436-26.865 17.244-35.012 17.212-.898-.003-1.8-.104-2.006-.224" transform="matrix(2.66158 0 0 2.54515 -803.106 -168.837)"/></g><g style="fill:#fff;fill-opacity:1" transform="matrix(2.66158 0 0 -2.54515 -802.614 2059.892)"/></g><path style="fill:#fff" d="m347.87 564.964-17.46 53.756-18.179-53.517-56.52.006 45.28-33.827-17.472-53.753 46.164 32.611 45.722-33.227-16.749 53.982 45.73 33.216z" transform="rotate(180 357.904 570.906)"/></svg>