<svg xmlns="http://www.w3.org/2000/svg" xmlns:xlink="http://www.w3.org/1999/xlink" version="1.0" width="534.35" height="500"><defs><linearGradient id="a"><stop style="stop-color:#4e6471;stop-opacity:1" offset="0"/><stop style="stop-color:#fff;stop-opacity:1" offset="1"/></linearGradient><linearGradient id="b"><stop style="stop-color:#4e6471;stop-opacity:1" offset="0"/><stop style="stop-color:#e4f3fb;stop-opacity:1" offset=".12"/><stop style="stop-color:#4e6471;stop-opacity:1" offset=".398"/><stop style="stop-color:#e4f3fb;stop-opacity:1" offset=".62"/><stop style="stop-color:#4e6471;stop-opacity:1" offset="1"/></linearGradient><linearGradient x1="8.5" y1="1036.362" x2="191.5" y2="1036.362" id="e" xlink:href="#a" gradientUnits="userSpaceOnUse" gradientTransform="translate(0 -552.362)"/><linearGradient x1="8.5" y1="569.362" x2="191.5" y2="569.362" id="d" xlink:href="#a" gradientUnits="userSpaceOnUse" gradientTransform="translate(0 -552.362)"/><linearGradient x1="22.5" y1="1028.583" x2="251.783" y2="436.698" id="c" xlink:href="#b" gradientUnits="userSpaceOnUse" gradientTransform="translate(0 -552.362)"/><linearGradient x1="22.5" y1="1028.583" x2="251.783" y2="436.698" id="f" xlink:href="#b" gradientUnits="userSpaceOnUse" gradientTransform="translate(0 -552.362)"/><linearGradient x1="8.5" y1="569.362" x2="191.5" y2="569.362" id="g" xlink:href="#a" gradientUnits="userSpaceOnUse" gradientTransform="translate(0 -552.362)"/><linearGradient x1="8.5" y1="1036.362" x2="191.5" y2="1036.362" id="h" xlink:href="#a" gradientUnits="userSpaceOnUse" gradientTransform="translate(0 -552.362)"/></defs><path style="fill:#000;fill-opacity:1;fill-rule:evenodd;stroke:none" d="M0 0h200v500H0z"/><path style="fill:url(#c);fill-opacity:1;fill-rule:evenodd;stroke:#fff;stroke-width:7;stroke-linecap:square;stroke-linejoin:miter;stroke-miterlimit:4;stroke-opacity:1;stroke-dasharray:none;stroke-dashoffset:0" d="M26 27.279h148v445.442H26z"/><path d="M22.5 25 8.5 9h183l-14 16z" style="fill:url(#d);fill-opacity:1;fill-rule:evenodd;stroke:none"/><path d="m8.5 492 14-16h155l14 16z" style="fill:url(#e);fill-opacity:1;fill-rule:evenodd;stroke:none"/><path d="m191.5 492.013-14-16v-451l14-16z" style="fill:#4e6471;fill-opacity:1;fill-rule:evenodd;stroke:#4e6471;stroke-width:.1;stroke-linecap:butt;stroke-linejoin:miter;stroke-miterlimit:4;stroke-opacity:1;stroke-dasharray:none"/><path d="m8.5 9.013 14 16v451l-14 16z" style="fill:#c7d7e0;fill-opacity:1;fill-rule:evenodd;stroke:#c7d7e0;stroke-width:.1;stroke-linecap:butt;stroke-linejoin:miter;stroke-miterlimit:4;stroke-opacity:1;stroke-dasharray:none"/><path style="fill:#000;fill-opacity:1;fill-rule:evenodd;stroke:none" d="M0 0h200v500H0z" transform="translate(334.35)"/><path style="fill:url(#f);fill-opacity:1;fill-rule:evenodd;stroke:#fff;stroke-width:7;stroke-linecap:square;stroke-linejoin:miter;stroke-miterlimit:4;stroke-opacity:1;stroke-dasharray:none;stroke-dashoffset:0" d="M26 27.279h148v445.442H26z" transform="translate(334.35)"/><path d="M22.5 25 8.5 9h183l-14 16z" style="fill:url(#g);fill-opacity:1;fill-rule:evenodd;stroke:none" transform="translate(334.35)"/><path d="m8.5 492 14-16h155l14 16z" style="fill:url(#h);fill-opacity:1;fill-rule:evenodd;stroke:none" transform="translate(334.35)"/><path d="m191.5 492.013-14-16v-451l14-16z" style="fill:#4e6471;fill-opacity:1;fill-rule:evenodd;stroke:#4e6471;stroke-width:.1;stroke-linecap:butt;stroke-linejoin:miter;stroke-miterlimit:4;stroke-opacity:1;stroke-dasharray:none" transform="translate(334.35)"/><path d="m8.5 9.013 14 16v451l-14 16z" style="fill:#c7d7e0;fill-opacity:1;fill-rule:evenodd;stroke:#c7d7e0;stroke-width:.1;stroke-linecap:butt;stroke-linejoin:miter;stroke-miterlimit:4;stroke-opacity:1;stroke-dasharray:none" transform="translate(334.35)"/><path d="M191.55 89.129v32.008H342.8V89.129z" style="fill:#000;fill-opacity:1;fill-rule:evenodd;stroke:none" transform="translate(0 23.437)"/><path d="M191.55 98.23v19.758H342.8V98.23z" style="fill:#284350;fill-opacity:1;fill-rule:evenodd;stroke:none" transform="translate(0 23.437)"/><path d="M191.55 92.278v6.48H342.8v-6.48z" style="fill:#a9bdcb;fill-opacity:1;fill-rule:evenodd;stroke:none" transform="translate(0 23.437)"/><path d="M191.55 89.129v32.008H342.8V89.129z" style="fill:#000;fill-opacity:1;fill-rule:evenodd;stroke:none" transform="matrix(1 0 0 -1 0 476.563)"/><path d="M191.55 98.23v19.758H342.8V98.23z" style="fill:#284350;fill-opacity:1;fill-rule:evenodd;stroke:none" transform="matrix(1 0 0 -1 0 476.563)"/><path d="M191.55 92.278v6.48H342.8v-6.48z" style="fill:#a9bdcb;fill-opacity:1;fill-rule:evenodd;stroke:none" transform="matrix(1 0 0 -1 0 476.563)"/></svg>