<svg xmlns="http://www.w3.org/2000/svg" xmlns:xlink="http://www.w3.org/1999/xlink" width="499.584" height="524.334" version="1.0"><defs><linearGradient id="d"><stop offset="0" style="stop-color:#824b00;stop-opacity:1"/><stop style="stop-color:#deab2d;stop-opacity:1" offset=".5"/><stop offset="1" style="stop-color:#824b00;stop-opacity:1"/></linearGradient><linearGradient id="j"><stop style="stop-color:#d9bd55;stop-opacity:1" offset="0"/><stop style="stop-color:#d9bd55;stop-opacity:0" offset="1"/></linearGradient><linearGradient id="b"><stop style="stop-color:#deab2d;stop-opacity:1" offset="0"/><stop style="stop-color:#824b00;stop-opacity:1" offset="1"/></linearGradient><linearGradient id="c"><stop style="stop-color:#824b00;stop-opacity:1" offset="0"/><stop style="stop-color:#b07b00;stop-opacity:1" offset="1"/></linearGradient><linearGradient id="a"><stop style="stop-color:#c38c00;stop-opacity:1" offset="0"/><stop offset=".25" style="stop-color:#e9de94;stop-opacity:1"/><stop style="stop-color:#c38c00;stop-opacity:1" offset=".5"/><stop offset=".75" style="stop-color:#e9de94;stop-opacity:1"/><stop offset="1" style="stop-color:#c38c00;stop-opacity:1"/></linearGradient><linearGradient id="e"><stop offset="0" style="stop-color:#e9de94;stop-opacity:1"/><stop offset="1" style="stop-color:#e9de94;stop-opacity:0"/></linearGradient><linearGradient id="g"><stop style="stop-color:#865100;stop-opacity:1" offset="0"/><stop style="stop-color:#865100;stop-opacity:0" offset="1"/></linearGradient><linearGradient xlink:href="#a" id="q" x1="184.875" y1="655.247" x2="563.552" y2="366.721" gradientUnits="userSpaceOnUse" gradientTransform="translate(40.058 -8.567)"/><linearGradient xlink:href="#b" id="s" gradientUnits="userSpaceOnUse" x1="152.625" y1="559.721" x2="362.362" y2="559.721" gradientTransform="translate(42.177 -8.354)"/><linearGradient xlink:href="#c" id="r" gradientUnits="userSpaceOnUse" x1="322.506" y1="596.066" x2="363.563" y2="605.404" gradientTransform="translate(42.177 -8.354)"/><linearGradient xlink:href="#b" id="t" x1="74.244" y1="151.187" x2="55.826" y2="201.187" gradientUnits="userSpaceOnUse"/><linearGradient xlink:href="#d" id="u" x1="104.24" y1="7.705" x2="253.303" y2="272.039" gradientUnits="userSpaceOnUse"/><linearGradient xlink:href="#b" id="v" x1="322.971" y1="144.934" x2="267.719" y2="144.934" gradientUnits="userSpaceOnUse"/><linearGradient xlink:href="#b" id="w" x1="440.698" y1="209.777" x2="408.98" y2="174.25" gradientUnits="userSpaceOnUse"/><linearGradient xlink:href="#b" id="x" x1="502.753" y1="315.092" x2="288.146" y2="287.515" gradientUnits="userSpaceOnUse"/><linearGradient xlink:href="#c" id="y" x1="327.479" y1="371.942" x2="288.5" y2="404.469" gradientUnits="userSpaceOnUse"/><linearGradient xlink:href="#d" id="z" x1="185.567" y1="508.373" x2="268.011" y2="508.36" gradientUnits="userSpaceOnUse"/><radialGradient xlink:href="#e" id="k" gradientUnits="userSpaceOnUse" gradientTransform="matrix(.2645 -.02322 .02877 .32768 285.56 253.191)" cx="696.235" cy="318.1" fx="696.235" fy="318.1" r="249.792"/><radialGradient xlink:href="#g" id="l" gradientUnits="userSpaceOnUse" gradientTransform="rotate(182.335 453.816 455.093)scale(.72964 .49909)" cx="458.679" cy="708.933" fx="458.679" fy="708.933" r="249.792"/><radialGradient xlink:href="#g" id="m" gradientUnits="userSpaceOnUse" gradientTransform="rotate(183.755 345.332 418.179)scale(.41375 .32175)" cx="746.812" cy="257.751" fx="746.812" fy="257.751" r="249.792"/><radialGradient xlink:href="#g" id="n" gradientUnits="userSpaceOnUse" gradientTransform="rotate(177.394 446.76 365.651)scale(.72964 .2644)" cx="1026.597" cy="652.801" fx="1026.597" fy="652.801" r="249.792"/><radialGradient xlink:href="#e" id="o" gradientUnits="userSpaceOnUse" gradientTransform="rotate(-5.808 2735 -1303.844)scale(.45557 .32894)" cx="91.3" cy="266.789" fx="91.3" fy="266.789" r="249.792"/><radialGradient xlink:href="#j" id="p" gradientUnits="userSpaceOnUse" gradientTransform="rotate(-5.808 2735 -1303.844)scale(.45557 .32894)" cx="7.053" cy="611.982" fx="7.053" fy="611.982" r="249.792"/></defs><path d="M314.41 757.398c17.871 17.832 50.808 19.692 73.994 2.778 4.041-27.825 7.365-55.98 5.303-86.621 46.055 23.604 60.997 29.158 117.683 21.213 9.62-28.26 11.48-58.591 6.818-90.661 38.03-5.922 68.006-23.924 88.894-55.558-16.81-48.942-26.918-59.78-57.832-94.955 11.836-39.418 15.606-57.81 12.122-98.49-50.799-19.82-65.806-21.285-124.696-17.563-24.214-53.952-35.528-60.685-75.535-90-57.306 46.425-64.445 43.517-100 101.339-57.512-2.302-71.986-6.87-124.286 17.768 9.94 46.52 7.27 53.611 29.958 103.582-32.811 35.719-45.945 39.769-59.315 88.862 31.116 22.01 44.712 34.524 90.567 46.215-3.436 23.392-7.215 53.62 18.969 87.993 49.972-1.028 53.729 3.824 118.096-16.715-6.354 27.777-13.44 54.454-20.74 80.813" style="fill:#c90;fill-opacity:1;fill-rule:evenodd;stroke:none;stroke-width:1px;stroke-linecap:butt;stroke-linejoin:miter;stroke-opacity:1" transform="translate(-107.518 -247.54)"/><path d="M314.41 757.397c17.871 17.833 50.808 19.692 73.994 2.778 4.041-27.824 7.365-55.98 5.303-86.62 46.055 23.604 60.997 29.157 117.683 21.213 9.62-28.261 11.48-58.592 6.818-90.662 38.03-5.922 68.006-23.924 88.894-55.558-16.81-48.941-26.918-59.78-57.832-94.954 11.836-39.418 15.606-57.81 12.122-98.49-50.799-19.82-65.806-21.285-124.696-17.564-24.214-53.951-35.528-60.685-75.535-90-57.306 46.425-64.445 43.518-100 101.34-57.512-2.303-71.986-6.87-124.286 17.767 9.94 46.52 7.27 53.612 29.958 103.583-32.811 35.718-45.945 39.768-59.315 88.861 31.116 22.01 44.712 34.524 90.567 46.215-3.436 23.392-7.215 53.62 18.969 87.993 49.972-1.027 53.729 3.825 118.096-16.714-6.354 27.776-13.44 54.454-20.74 80.812" style="fill:url(#k);fill-opacity:1;fill-rule:evenodd;stroke:none;stroke-width:1px;stroke-linecap:butt;stroke-linejoin:miter;stroke-opacity:1" transform="translate(-107.518 -247.54)"/><path style="fill:url(#l);fill-opacity:1;fill-rule:evenodd;stroke:none;stroke-width:1px;stroke-linecap:butt;stroke-linejoin:miter;stroke-opacity:1" d="M314.41 757.398c17.871 17.832 50.808 19.692 73.994 2.778 4.041-27.825 7.365-55.98 5.303-86.621 46.055 23.604 60.997 29.158 117.683 21.213 9.62-28.26 11.48-58.591 6.818-90.661 38.03-5.922 68.006-23.924 88.894-55.558l-499.584 10.543c31.116 22.01 44.712 34.524 90.567 46.215-3.436 23.392-7.215 53.62 18.969 87.993 49.972-1.028 53.729 3.824 118.096-16.715-6.354 27.777-13.44 54.454-20.74 80.813" transform="translate(-107.518 -247.54)"/><path d="M314.41 757.398c17.871 17.832 50.808 19.692 73.994 2.778 4.041-27.825 7.365-55.98 5.303-86.621l-58.557 3.03c-6.354 27.777-13.44 54.454-20.74 80.813" style="fill:url(#m);fill-opacity:1;fill-rule:evenodd;stroke:none;stroke-width:1px;stroke-linecap:butt;stroke-linejoin:miter;stroke-opacity:1" transform="translate(-107.518 -247.54)"/><path d="M314.41 757.398c17.871 17.832 50.808 19.692 73.994 2.778 4.041-27.825 7.365-55.98 5.303-86.621 46.055 23.604 60.997 29.158 117.683 21.213 9.62-28.26 11.48-58.591 6.818-90.661 38.03-5.922 68.006-23.924 88.894-55.558l-499.584 10.543c31.116 22.01 44.712 34.524 90.567 46.215-3.436 23.392-7.215 53.62 18.969 87.993 49.972-1.028 53.729 3.824 118.096-16.715-6.354 27.777-13.44 54.454-20.74 80.813" style="fill:url(#n);fill-opacity:1;fill-rule:evenodd;stroke:none;stroke-width:1px;stroke-linecap:butt;stroke-linejoin:miter;stroke-opacity:1" transform="translate(-107.518 -247.54)"/><path style="fill:url(#o);fill-opacity:1;fill-rule:evenodd;stroke:none;stroke-width:1px;stroke-linecap:butt;stroke-linejoin:miter;stroke-opacity:1" d="M314.41 757.398c17.871 17.832 50.808 19.692 73.994 2.778 4.041-27.825 7.365-55.98 5.303-86.621 46.055 23.604 60.997 29.158 117.683 21.213 9.62-28.26 11.48-58.591 6.818-90.661 38.03-5.922 68.006-23.924 88.894-55.558-16.81-48.942-26.918-59.78-57.832-94.955 11.836-39.418 15.606-57.81 12.122-98.49-50.799-19.82-65.806-21.285-124.696-17.563-24.214-53.952-35.528-60.685-75.535-90-57.306 46.425-64.445 43.517-100 101.339-57.512-2.302-71.986-6.87-124.286 17.768 9.94 46.52 7.27 53.611 29.958 103.582-32.811 35.719-45.945 39.769-59.315 88.862 31.116 22.01 44.712 34.524 90.567 46.215-3.436 23.392-7.215 53.62 18.969 87.993 49.972-1.028 53.729 3.824 118.096-16.715-6.354 27.777-13.44 54.454-20.74 80.813" transform="translate(-107.518 -247.54)"/><path d="M314.41 757.398c17.871 17.832 50.808 19.692 73.994 2.778 4.041-27.825 7.365-55.98 5.303-86.621 46.055 23.604 60.997 29.158 117.683 21.213 9.62-28.26 11.48-58.591 6.818-90.661 38.03-5.922 68.006-23.924 88.894-55.558-16.81-48.942-26.918-59.78-57.832-94.955 11.836-39.418 15.606-57.81 12.122-98.49-50.799-19.82-65.806-21.285-124.696-17.563-24.214-53.952-35.528-60.685-75.535-90-57.306 46.425-64.445 43.517-100 101.339-57.512-2.302-71.986-6.87-124.286 17.768 9.94 46.52 7.27 53.611 29.958 103.582-32.811 35.719-45.945 39.769-59.315 88.862 31.116 22.01 44.712 34.524 90.567 46.215-3.436 23.392-7.215 53.62 18.969 87.993 49.972-1.028 53.729 3.824 118.096-16.715-6.354 27.777-13.44 54.454-20.74 80.813" style="fill:url(#p);fill-opacity:1;fill-rule:evenodd;stroke:none;stroke-width:1px;stroke-linecap:butt;stroke-linejoin:miter;stroke-opacity:1" transform="translate(-107.518 -247.54)"/><g style="display:inline"><path style="fill:url(#q);fill-opacity:1;fill-rule:evenodd;stroke:none;stroke-width:1px;stroke-linecap:butt;stroke-linejoin:miter;stroke-opacity:1" d="M362.014 747.653c17.219 14.884 40.441 16.642 62.78 2.68 3.894-26.838 5.357-66.313 3.37-95.867 44.374 22.767 65.524 35.374 120.14 27.71 9.27-27.258 9.062-60.262 4.57-91.194 36.64-5.712 70.612-20.79 90.737-51.302-16.195-47.205-29.274-58.944-59.059-92.871 11.404-38.02 15.786-56.509 12.43-95.746-48.945-19.117-65.154-19.03-121.894-15.44-23.33-52.038-34.232-61.533-72.778-89.808-55.214 44.778-61.842 44.974-96.1 100.744-55.411-2.22-71.357-8.626-121.747 15.138 9.577 44.87 9.004 53.96 30.864 102.157-31.613 34.452-46.391 40.626-59.273 87.978 29.98 21.228 44.703 30.031 88.884 41.307-3.31 22.562-9.327 53.967 15.901 87.121 48.147-.99 62.151-.56 124.168-20.371-6.122 26.791-15.96 62.34-22.993 87.764" transform="translate(-148.815 -239.255)"/></g><g style="display:inline"><path transform="translate(-148.815 -239.255)" style="fill:url(#r);fill-opacity:1;fill-rule:evenodd;stroke:none;stroke-width:1px;stroke-linecap:butt;stroke-linejoin:miter;stroke-opacity:1" d="M405.74 530.071 385.926 654.01c-53.921 16.308-62.508 21.35-120.72 21.926 12.176-49.988 120.469-135.284 140.532-145.864"/><path transform="translate(-148.815 -239.255)" style="fill:url(#s);fill-opacity:1;fill-rule:evenodd;stroke:none;stroke-width:1px;stroke-linecap:butt;stroke-linejoin:miter;stroke-opacity:1" d="M159.302 549.884c84.137-34.345 114.091-48.966 244.737-27.19-79.711 24.437-82.553 22.767-154.768 67.617-33.178-10.142-64.1-22.645-89.97-40.427"/><path style="fill:url(#t);fill-opacity:1;fill-rule:evenodd;stroke:none;stroke-width:1px;stroke-linecap:butt;stroke-linejoin:miter;stroke-opacity:1" d="M69.473 223.637c-21.28-41.772-20.316-59.539-30.229-98.818 93.913 45.914 108.217 39.747 217.082 152.735-106.167-42.606-94.77-36.101-186.853-53.917"/><path style="fill:url(#u);fill-opacity:1;fill-rule:evenodd;stroke:none;stroke-width:1px;stroke-linecap:butt;stroke-linejoin:miter;stroke-opacity:1" d="M257.52 275.124c-36.096-62.324-71.231-115.468-102.27-164.04l5.625.125c39.57 51.835 60.7 92.782 96.644 163.915"/><path style="fill:url(#v);fill-opacity:1;fill-rule:evenodd;stroke:none;stroke-width:1px;stroke-linecap:butt;stroke-linejoin:miter;stroke-opacity:1" d="M254.25 11.96c26.215 18.072 49.276 38.314 68.721 86.254-17.231 59.898-38.726 119.796-62.49 179.694-10.133-89.455-4.493-177.333-6.231-265.949"/><path style="fill:url(#w);fill-opacity:1;fill-rule:evenodd;stroke:none;stroke-width:1px;stroke-linecap:butt;stroke-linejoin:miter;stroke-opacity:1" d="M260.75 279.834c55.355-27.364 82.143-37.578 172.5-76.375 10.215-29.375 11.518-58.75 12.5-88.125-63.09 54.36-129.306 107.676-185 164.5"/><path style="fill:url(#x);fill-opacity:1;fill-rule:evenodd;stroke:none;stroke-width:1px;stroke-linecap:butt;stroke-linejoin:miter;stroke-opacity:1" d="M263.75 283.211c109.87-19.26 98.173-3.463 224.86 16.97-17.71 29.79-52.037 42.373-86.62 48.437-43.484-27.859-51.48-31.256-138.24-65.407"/><path style="fill:url(#y);fill-opacity:1;fill-rule:evenodd;stroke:none;stroke-width:1px;stroke-linecap:butt;stroke-linejoin:miter;stroke-opacity:1" d="M393.858 439.305c-42.615 5.212-78.646-6.586-109.955-30.582-2.19-38.891-5.213-67.53-22.804-116.673 62.766 56.148 92.628 95.609 132.76 147.255"/><path style="fill:url(#z);fill-opacity:1;fill-rule:evenodd;stroke:none;stroke-width:1px;stroke-linecap:butt;stroke-linejoin:miter;stroke-opacity:1" d="M213.22 508.246c9.632-14.986 67.956-9.474 62.78 2.93-17.797 13.164-48.944 13.071-62.78-2.93"/></g></svg>