<svg xmlns="http://www.w3.org/2000/svg" xmlns:xlink="http://www.w3.org/1999/xlink" version="1.0" width="1252" height="583"><defs><linearGradient id="a"><stop style="stop-color:#777;stop-opacity:1" offset="0"/><stop style="stop-color:#fff;stop-opacity:1" offset=".5"/><stop style="stop-color:#777;stop-opacity:1" offset="1"/></linearGradient><linearGradient x1="403.282" y1="433.531" x2="428.91" y2="497.435" id="k" xlink:href="#a" gradientUnits="userSpaceOnUse" gradientTransform="translate(-410.708 -1174.853)scale(3.40317)"/><linearGradient x1="412.399" y1="402.397" x2="426.533" y2="433.863" id="j" xlink:href="#a" gradientUnits="userSpaceOnUse" gradientTransform="translate(-410.708 -1174.853)scale(3.40317)"/><linearGradient x1="299.143" y1="428.989" x2="376.453" y2="414.415" id="i" xlink:href="#a" gradientUnits="userSpaceOnUse" gradientTransform="rotate(73.471 1937.011 625.259)scale(3.40317)"/><linearGradient x1="289.355" y1="417.233" x2="352.908" y2="456.477" id="h" xlink:href="#a" gradientUnits="userSpaceOnUse" gradientTransform="translate(-410.708 -1174.853)scale(3.40317)"/><linearGradient x1="394.783" y1="476.928" x2="374.454" y2="437.142" id="g" xlink:href="#a" gradientUnits="userSpaceOnUse" gradientTransform="translate(-410.708 -1174.853)scale(3.40317)"/><linearGradient x1="403.282" y1="433.531" x2="428.91" y2="497.435" id="f" xlink:href="#a" gradientUnits="userSpaceOnUse" gradientTransform="translate(-1041.285 -1174.853)scale(3.40317)"/><linearGradient x1="412.399" y1="402.397" x2="426.533" y2="433.863" id="e" xlink:href="#a" gradientUnits="userSpaceOnUse" gradientTransform="translate(-1041.285 -1174.853)scale(3.40317)"/><linearGradient x1="299.143" y1="428.989" x2="376.453" y2="414.415" id="d" xlink:href="#a" gradientUnits="userSpaceOnUse" gradientTransform="rotate(73.471 1621.722 202.816)scale(3.40317)"/><linearGradient x1="289.355" y1="417.233" x2="352.908" y2="456.477" id="c" xlink:href="#a" gradientUnits="userSpaceOnUse" gradientTransform="translate(-1041.285 -1174.853)scale(3.40317)"/><linearGradient x1="394.783" y1="476.928" x2="374.454" y2="437.142" id="b" xlink:href="#a" gradientUnits="userSpaceOnUse" gradientTransform="translate(-1041.285 -1174.853)scale(3.40317)"/></defs><path d="M236.97 220.19 314.326 5.975l77.737 214.562 223.961.868-175.412 131.656 82.071 224.316-207.823-143.73-202.423 143.948 78.782-222.239L5.403 221.4z" style="fill:#fff;fill-opacity:1;fill-rule:evenodd;stroke:none;stroke-width:2;stroke-linecap:butt;stroke-linejoin:miter;stroke-miterlimit:4;stroke-dasharray:none;stroke-opacity:1"/><path d="m314.86 433.647-202.423 143.95 201.607-264.618z" style="fill:url(#b);fill-opacity:1;fill-rule:evenodd;stroke:none;stroke-width:2;stroke-linecap:butt;stroke-linejoin:miter;stroke-miterlimit:4;stroke-dasharray:none;stroke-opacity:1"/><path d="m314.033 312.966-122.814 42.391L5.403 221.4z" style="fill:url(#c);fill-opacity:1;fill-rule:evenodd;stroke:none;stroke-width:2;stroke-linecap:butt;stroke-linejoin:miter;stroke-miterlimit:4;stroke-dasharray:none;stroke-opacity:1"/><path d="m314.035 312.994-77.706-93.13 77.26-211.78z" style="fill:url(#d);fill-opacity:1;fill-rule:evenodd;stroke:none;stroke-width:2;stroke-linecap:butt;stroke-linejoin:miter;stroke-miterlimit:4;stroke-dasharray:none;stroke-opacity:1"/><path d="m392.063 220.538 223.961.868-301.974 91.585z" style="fill:url(#e);fill-opacity:1;fill-rule:evenodd;stroke:none;stroke-width:2;stroke-linecap:butt;stroke-linejoin:miter;stroke-miterlimit:4;stroke-dasharray:none;stroke-opacity:1"/><path d="m440.612 353.062 82.071 224.316-208.634-264.37z" style="fill:url(#f);fill-opacity:1;fill-rule:evenodd;stroke:none;stroke-width:2;stroke-linecap:butt;stroke-linejoin:miter;stroke-miterlimit:4;stroke-dasharray:none;stroke-opacity:1"/><path d="M236.97 220.19 314.326 5.975l77.737 214.562 223.961.868-175.412 131.656 82.071 224.316-207.823-143.73-202.423 143.948 78.782-222.239L5.403 221.4z" style="fill:none;fill-rule:evenodd;stroke:#000;stroke-width:6.8063302;stroke-linecap:butt;stroke-linejoin:miter;stroke-miterlimit:4;stroke-dasharray:none;stroke-opacity:1"/><path d="M867.547 220.19 944.903 5.975l77.737 214.562 223.961.868-175.412 131.656 82.071 224.316-207.823-143.73-202.423 143.948 78.782-222.239L635.98 221.4z" style="fill:#fff;fill-opacity:1;fill-rule:evenodd;stroke:none;stroke-width:2;stroke-linecap:butt;stroke-linejoin:miter;stroke-miterlimit:4;stroke-dasharray:none;stroke-opacity:1"/><path d="m945.437 433.647-202.423 143.95 201.607-264.618z" style="fill:url(#g);fill-opacity:1;fill-rule:evenodd;stroke:none;stroke-width:2;stroke-linecap:butt;stroke-linejoin:miter;stroke-miterlimit:4;stroke-dasharray:none;stroke-opacity:1"/><path d="m944.61 312.966-122.814 42.391L635.98 221.4z" style="fill:url(#h);fill-opacity:1;fill-rule:evenodd;stroke:none;stroke-width:2;stroke-linecap:butt;stroke-linejoin:miter;stroke-miterlimit:4;stroke-dasharray:none;stroke-opacity:1"/><path d="m944.612 312.994-77.706-93.13 77.26-211.78z" style="fill:url(#i);fill-opacity:1;fill-rule:evenodd;stroke:none;stroke-width:2;stroke-linecap:butt;stroke-linejoin:miter;stroke-miterlimit:4;stroke-dasharray:none;stroke-opacity:1"/><path d="m1022.64 220.538 223.961.868-301.974 91.585z" style="fill:url(#j);fill-opacity:1;fill-rule:evenodd;stroke:none;stroke-width:2;stroke-linecap:butt;stroke-linejoin:miter;stroke-miterlimit:4;stroke-dasharray:none;stroke-opacity:1"/><path d="m1071.189 353.062 82.071 224.316-208.634-264.37z" style="fill:url(#k);fill-opacity:1;fill-rule:evenodd;stroke:none;stroke-width:2;stroke-linecap:butt;stroke-linejoin:miter;stroke-miterlimit:4;stroke-dasharray:none;stroke-opacity:1"/><path d="M867.547 220.19 944.903 5.975l77.737 214.562 223.961.868-175.412 131.656 82.071 224.316-207.823-143.73-202.423 143.948 78.782-222.239L635.98 221.4z" style="fill:none;fill-rule:evenodd;stroke:#000;stroke-width:6.8063302;stroke-linecap:butt;stroke-linejoin:miter;stroke-miterlimit:4;stroke-dasharray:none;stroke-opacity:1"/></svg>