<?xml version="1.0" encoding="UTF-8" standalone="no"?>
<!-- Created with Inkscape (http://www.inkscape.org/) -->

<svg
   width="148.705mm"
   height="148.70503mm"
   viewBox="0 0 148.705 148.70503"
   version="1.1"
   id="svg1"
   xml:space="preserve"
   inkscape:version="1.4.3 (fcd0343856, 2026-01-01)"
   sodipodi:docname="campfire.svg"
   xmlns:inkscape="http://www.inkscape.org/namespaces/inkscape"
   xmlns:sodipodi="http://sodipodi.sourceforge.net/DTD/sodipodi-0.dtd"
   xmlns="http://www.w3.org/2000/svg"
   xmlns:svg="http://www.w3.org/2000/svg"><sodipodi:namedview
     id="namedview1"
     pagecolor="#505050"
     bordercolor="#eeeeee"
     borderopacity="1"
     inkscape:showpageshadow="0"
     inkscape:pageopacity="0"
     inkscape:pagecheckerboard="0"
     inkscape:deskcolor="#505050"
     inkscape:document-units="mm"
     inkscape:zoom="0.89619809"
     inkscape:cx="290.11443"
     inkscape:cy="201.40636"
     inkscape:window-width="2494"
     inkscape:window-height="1371"
     inkscape:window-x="66"
     inkscape:window-y="32"
     inkscape:window-maximized="1"
     inkscape:current-layer="svg1" /><defs
     id="defs1" /><g
     inkscape:groupmode="layer"
     id="layer2"
     inkscape:label="Layer 2"
     style="display:inline"
     transform="translate(-53.999939,-61.420881)"><path
       style="opacity:1;fill:#75391c;stroke:#ffffff;stroke-width:1;stroke-linecap:round;stroke-dasharray:none;stroke-opacity:1"
       d="M 162.58365,189.65679 99.016785,161.99633 c -10.090834,0.19004 -12.719652,9.86587 -7.097777,16.90941 l 64.088762,29.22614 c -8.72694,-7.99714 -1.52443,-18.7995 6.57588,-18.47509 z"
       id="path2"
       sodipodi:nodetypes="ccccc" /><ellipse
       style="opacity:1;fill:#75391c;stroke:#ffffff;stroke-width:1;stroke-linecap:round;stroke-dasharray:none;stroke-opacity:1"
       id="path1"
       cx="223.48126"
       cy="123.83688"
       rx="7.881"
       ry="9.8116331"
       transform="rotate(22.258142)" /></g><g
     inkscape:groupmode="layer"
     id="layer3"
     inkscape:label="Layer 3"
     transform="translate(-53.999939,-61.420881)"><ellipse
       style="opacity:1;fill:#75391c;stroke:#ffffff;stroke-width:1.07781;stroke-linecap:round;stroke-dasharray:none;stroke-opacity:1"
       id="path3"
       cx="51.173512"
       cy="216.05347"
       rx="8.15485"
       ry="9.8771048"
       transform="rotate(-12.544156)" /><path
       style="opacity:1;fill:#75391c;stroke:#ffffff;stroke-width:1;stroke-linecap:round;stroke-dasharray:none;stroke-opacity:1"
       d="m 92.440902,190.90934 65.550068,-30.06118 c 10.92248,1.43901 11.80729,10.15318 8.24595,16.90942 l -63.98438,30.26993 c 8.27567,-11.44184 -2.15231,-20.88068 -9.811638,-17.11817 z"
       id="path4"
       sodipodi:nodetypes="ccccc" /><path
       style="opacity:0.64;fill:#75391c;stroke:#ffffff;stroke-width:2;stroke-linecap:round;stroke-dasharray:none;stroke-opacity:1"
       d="m 105.48829,198.52901 16.80503,-7.82843"
       id="path5" /><path
       style="opacity:0.64;fill:#75391c;stroke:#ffffff;stroke-width:2;stroke-linecap:round;stroke-dasharray:none;stroke-opacity:1"
       d="m 128.03417,187.98673 9.08098,-4.07079"
       id="path6" /></g><g
     inkscape:groupmode="layer"
     id="layer4"
     inkscape:label="Layer 4"
     style="opacity:1"
     transform="translate(-53.999939,-61.420881)"><path
       style="opacity:1;fill:#ff7f2a;stroke:#ffffff;stroke-width:1;stroke-linecap:round;stroke-dasharray:none;stroke-opacity:1"
       d="m 161.22672,105.94477 c -2.70024,5.78732 -7.38978,9.86951 -13.9868,12.31673 6.88154,-20.41819 -0.97643,-39.111545 -20.24954,-56.469085 1.66311,3.896761 1.06792,22.70423 -14.92621,36.637058 -18.723896,16.310777 -18.620806,59.336957 16.80503,59.496077 40.24941,0.18079 39.8628,-39.74529 32.35752,-51.98078 z"
       id="path7"
       sodipodi:nodetypes="cccssc" /><path
       style="opacity:1;fill:#ffff00;stroke:none;stroke-width:1;stroke-linecap:round;stroke-dasharray:none;stroke-opacity:1"
       d="m 133.09655,110.90278 c -7.09339,7.40348 -14.48991,14.62628 -10.17696,28.54767 l -7.41091,-5.74085 c -1.30647,0.41257 -4.86154,20.40464 5.12954,22.77938 5.77506,1.37265 11.98573,1.07199 17.52425,0.16262 8.61818,-1.41501 12.32052,-16.47259 3.07566,-24.45549 -5.41065,-4.67206 -9.88814,-18.12234 -8.14158,-21.29333 z"
       id="path8"
       sodipodi:nodetypes="cccsssc" /></g></svg>
